<svg width="729" height="256" viewBox="0 0 729 256" fill="none" xmlns="http://www.w3.org/2000/svg">
<path d="M253.622 80.3C253.622 35.95 217.672 0 173.322 0C173.322 0 -63.5483 23.09 16.5317 164.53C20.2317 171.06 31.6817 188.87 36.1917 193.98C203.182 382.73 253.622 80.3 253.622 80.3Z" fill="url(#paint0_linear_383_23835)"/>
<path d="M347.122 57.18C350.842 60.35 352.702 65.21 352.702 71.77C352.702 78.33 350.792 83.13 346.962 86.17C343.142 89.21 337.302 90.73 329.452 90.73H322.382V105.54H310.532V52.44H329.292C337.462 52.43 343.392 54.02 347.122 57.18ZM338.422 78.07C339.842 76.47 340.552 74.15 340.552 71.08C340.552 68.02 339.632 65.84 337.782 64.55C335.932 63.26 333.062 62.61 329.162 62.61H322.402V80.46H330.382C334.312 80.47 337.002 79.67 338.422 78.07Z" fill="#FFFFFF"/>
<path d="M405.042 70.0599C405.042 78.5699 401.672 84.0599 394.942 86.5499L408.392 105.54H393.802L382.022 88.5999H373.812V105.54H361.972V52.4399H382.102C390.352 52.4399 396.242 53.8299 399.762 56.6199C403.282 59.3999 405.042 63.8799 405.042 70.0599ZM390.762 76.3599C392.232 75.0399 392.962 72.9499 392.962 70.0899C392.962 67.2299 392.202 65.2699 390.682 64.1999C389.162 63.1399 386.502 62.5999 382.702 62.5999H373.812V78.3299H382.472C386.532 78.3399 389.292 77.6799 390.762 76.3599Z" fill="#FFFFFF"/>
<path d="M455.492 52.4299V62.9899H429.052V73.9299H452.832V84.0299H429.052V95.0499H456.322V105.53H417.202V52.4299H455.492Z" fill="#FFFFFF"/>
<path d="M491.272 95.05C497.092 95.05 501.852 92.75 505.552 88.14L513.152 95.97C507.122 102.76 500.022 106.15 491.842 106.15C483.662 106.15 476.922 103.57 471.632 98.4C466.342 93.23 463.692 86.71 463.692 78.84C463.692 70.96 466.392 64.39 471.782 59.13C477.172 53.86 483.772 51.23 491.572 51.23C500.282 51.23 507.572 54.55 513.452 61.18L506.082 69.54C502.332 64.88 497.672 62.55 492.102 62.55C487.642 62.55 483.832 64.01 480.672 66.92C477.502 69.83 475.922 73.76 475.922 78.7C475.922 83.64 477.412 87.6 480.402 90.59C483.392 93.58 487.012 95.05 491.272 95.05Z" fill="#FFFFFF"/>
<path d="M522.492 52.4299H534.342V105.53H522.492V52.4299Z" fill="#FFFFFF"/>
<path d="M583.872 52.4299V62.8399H559.262V74.3099H582.662V84.7199H559.262V105.54H547.412V52.4399H583.872V52.4299Z" fill="#FFFFFF"/>
<path d="M593.902 52.4299H605.752V105.53H593.902V52.4299Z" fill="#FFFFFF"/>
<path d="M643.202 95.05C649.022 95.05 653.782 92.75 657.482 88.14L665.082 95.97C659.052 102.76 651.952 106.15 643.772 106.15C635.592 106.15 628.852 103.57 623.562 98.4C618.272 93.23 615.622 86.71 615.622 78.84C615.622 70.96 618.322 64.39 623.712 59.13C629.102 53.86 635.702 51.23 643.502 51.23C652.212 51.23 659.502 54.55 665.382 61.18L658.012 69.54C654.262 64.88 649.602 62.55 644.032 62.55C639.572 62.55 635.762 64.01 632.602 66.92C629.432 69.83 627.852 73.76 627.852 78.7C627.852 83.64 629.342 87.6 632.332 90.59C635.322 93.58 638.952 95.05 643.202 95.05Z" fill="#FFFFFF"/>
<path d="M711.882 105.54L706.942 94.0699H684.682L679.742 105.54H667.132L690.072 52.4399H701.542L724.482 105.54H711.882ZM695.852 68.2399L689.162 83.6599H702.452L695.852 68.2399Z" fill="#FFFFFF"/>
<path d="M353.872 194.82C363.262 194.82 370.942 191.1 376.912 183.67L389.162 196.29C379.442 207.24 367.982 212.71 354.792 212.71C341.602 212.71 330.732 208.54 322.202 200.21C313.662 191.88 309.402 181.36 309.402 168.66C309.402 155.96 313.752 145.36 322.452 136.86C331.152 128.36 341.792 124.12 354.372 124.12C368.422 124.12 380.182 129.47 389.662 140.17L377.782 153.65C371.732 146.14 364.222 142.38 355.232 142.38C348.042 142.38 341.892 144.73 336.792 149.43C331.682 154.13 329.132 160.46 329.132 168.42C329.132 176.38 331.542 182.78 336.362 187.6C341.172 192.41 347.012 194.82 353.872 194.82Z" fill="#FFFFFF"/>
<path d="M465.992 126.08V143.11H423.352V160.75H461.702V177.05H423.352V194.82H467.342V211.73H404.242V126.08H465.992Z" fill="#FFFFFF"/>
<path d="M553.852 154.51C553.852 168.23 548.422 177.1 537.552 181.1L559.242 211.73H535.712L516.722 184.41H503.492V211.73H484.372V126.08H516.842C530.152 126.08 539.652 128.33 545.332 132.82C551.012 137.31 553.852 144.54 553.852 154.51ZM530.812 164.68C533.182 162.56 534.362 159.19 534.362 154.57C534.362 149.96 533.132 146.79 530.682 145.07C528.232 143.35 523.942 142.5 517.812 142.5H503.472V167.86H517.442C523.992 167.87 528.442 166.81 530.812 164.68Z" fill="#FFFFFF"/>
<path d="M608.002 142.62V211.73H588.882V142.62H564.622V126.08H632.262V142.62H608.002Z" fill="#FFFFFF"/>
<path d="M715.952 199.91C707.292 208.36 696.632 212.59 683.972 212.59C671.312 212.59 660.652 208.36 651.992 199.91C643.332 191.45 639.002 180.94 639.002 168.36C639.002 155.78 643.332 145.26 651.992 136.81C660.652 128.36 671.312 124.13 683.972 124.13C696.632 124.13 707.292 128.36 715.952 136.81C724.612 145.27 728.942 155.78 728.942 168.36C728.942 180.94 724.612 191.45 715.952 199.91ZM709.462 168.42C709.462 160.78 707.012 154.27 702.112 148.88C697.212 143.49 691.182 140.79 684.042 140.79C676.892 140.79 670.872 143.49 665.972 148.88C661.072 154.27 658.622 160.79 658.622 168.42C658.622 176.06 661.072 182.55 665.972 187.9C670.872 193.25 676.892 195.93 684.042 195.93C691.192 195.93 697.212 193.26 702.112 187.9C707.012 182.55 709.462 176.06 709.462 168.42Z" fill="#FFFFFF"/>
<path d="M89.8216 175.93L107.712 208.39C111.452 215.18 121.182 215.25 125.032 208.52L209.702 60.3399C213.312 54.0299 209.132 46.1099 201.892 45.5199L164.652 42.4699C160.752 42.1499 157.032 44.1499 155.142 47.5799L89.8216 166.34C88.1816 169.33 88.1816 172.95 89.8216 175.93Z" fill="white"/>
<path d="M83.6516 149.61C81.7816 153.19 76.6916 153.32 74.6416 149.84L54.8816 114.33C54.0716 112.88 55.0516 111 56.7116 110.98C56.7216 110.98 56.7316 110.98 56.7416 110.98L95.3716 110.82C99.2516 110.8 101.752 114.92 99.9616 118.35L83.6516 149.61Z" fill="white"/>
<defs>
<linearGradient id="paint0_linear_383_23835" x1="-1.56436e-05" y1="127.99" x2="253.62" y2="127.99" gradientUnits="userSpaceOnUse">
<stop stop-color="#068C38"/>
<stop offset="1" stop-color="#42AC45"/>
</linearGradient>
</defs>
</svg>
